<svg width="19" height="41" viewBox="0 0 19 41" fill="none" xmlns="http://www.w3.org/2000/svg">
<path d="M13.103 14.6742L13.1024 14.6742C11.8743 14.6455 10.6531 14.652 9.41628 14.6586C8.87848 14.6614 8.33773 14.6643 7.79219 14.6643C7.79146 14.6643 7.79073 14.6643 7.79 14.6643L1.51086 14.6927C1.22554 14.6968 1.10178 14.7713 1.06619 14.8018C1.05058 14.8152 1.03904 14.8297 1.02859 14.8545C1.01713 14.8819 0.999002 14.9417 1.00004 15.0504L1.00005 15.0507C1.00192 15.254 1.06025 15.3053 1.07607 15.3192L1.07663 15.3197C1.11156 15.3505 1.23287 15.4279 1.52719 15.4356L1.52872 15.4357C1.59556 15.4375 1.69645 15.4389 1.80781 15.4403C1.97492 15.4425 2.16561 15.4451 2.30021 15.4502L2.3005 15.4502C2.84289 15.4709 3.34517 15.5138 3.77333 15.6222C4.20939 15.7326 4.66532 15.9349 5.0035 16.3457C5.34235 16.7573 5.45239 17.2439 5.47504 17.6936C5.49722 18.1342 5.43974 18.6336 5.35255 19.1666L5.35247 19.1671C5.3144 19.3991 5.26406 19.6447 5.21892 19.8648C5.19963 19.959 5.18128 20.0484 5.16526 20.1302L5.16522 20.1304C4.91346 21.414 4.65548 22.6908 4.39816 23.9644C3.8156 26.8477 3.2364 29.7145 2.74025 32.6047L13.103 14.6742ZM13.103 14.6742C14.1331 14.6977 14.4881 14.9277 14.6148 15.0846C14.7413 15.2411 14.8924 15.6368 14.697 16.6522C13.664 22.0139 11.9346 30.7143 11.4831 32.5685C11.4632 32.6503 11.4381 32.7448 11.4105 32.849C11.2982 33.2721 11.1436 33.8551 11.1163 34.3943C11.0778 35.1554 11.2685 36.0257 12.0873 36.6949L12.0874 36.6949M13.103 14.6742L12.0874 36.6949M12.0874 36.6949C12.9225 37.3772 13.8283 37.4341 14.6085 37.2839C15.1413 37.1813 15.7104 36.9547 16.147 36.7808C16.275 36.7299 16.3917 36.6834 16.4926 36.646C16.8295 36.5214 17.1169 36.3691 17.3594 36.239C17.3769 36.2296 17.3941 36.2204 17.4112 36.2112C17.5724 36.1246 17.7177 36.0465 17.8708 35.9731C17.6172 36.3396 17.3027 36.6609 16.9402 36.9228L16.9381 36.9243M12.0874 36.6949L16.9381 36.9243M16.9381 36.9243C14.1312 38.9633 10.9967 39.8105 7.57707 39.3986L7.57702 39.3986M16.9381 36.9243L7.57702 39.3986M7.57702 39.3986C5.84986 39.1906 4.50617 38.3661 3.66226 37.1908M7.57702 39.3986L3.66226 37.1908M3.66226 37.1908C2.81654 36.013 2.42878 34.4203 2.74023 32.6048L3.66226 37.1908ZM10.7873 10.1214L10.787 10.1214C8.33327 10.1547 6.37783 8.2694 6.3357 5.91093C6.29492 3.56794 8.23523 1.55432 10.6218 1.50108C12.9948 1.44815 14.9902 3.35164 15.0473 5.75201C15.1039 8.13495 13.2161 10.0891 10.7873 10.1214Z" stroke="white" stroke-width="2"/>
</svg>
