<svg width="43" height="41" viewBox="0 0 43 41" fill="none" xmlns="http://www.w3.org/2000/svg">
<path d="M9.08667 29.1884C7.52501 29.1884 6.07705 29.1884 4.62408 29.1884C2.12693 29.1809 0.513446 27.5885 0.509266 25.08C0.497562 18.2968 0.497562 11.5135 0.509266 4.73016C0.509266 2.19081 2.12861 0.615093 4.68928 0.614258C13.3625 0.614258 22.0364 0.614258 30.7107 0.614258C33.258 0.614258 34.8314 2.1524 34.8356 4.68173C34.8456 11.4879 34.8456 18.2948 34.8356 25.1026C34.8356 27.6436 33.2681 29.1851 30.7275 29.1884C26.6528 29.1926 22.5781 29.1776 18.5034 29.2085C18.092 29.2239 17.6972 29.3748 17.3807 29.6377C15.2305 31.519 13.1112 33.4354 10.9911 35.3493C10.6023 35.7001 10.2236 36.0107 9.66434 35.7518C9.10506 35.493 9.08834 34.9895 9.08834 34.4776C9.08666 32.7424 9.08667 31.0105 9.08667 29.1884ZM11.0337 32.7348C12.9281 31.0339 14.677 29.4916 16.3892 27.91C16.8607 27.4741 17.3397 27.2812 17.9776 27.2846C22.2194 27.3054 26.4605 27.2996 30.7015 27.2921C32.2181 27.2921 32.9362 26.5631 32.937 25.0575C32.937 18.2976 32.937 11.5382 32.937 4.77943C32.937 3.22208 32.2314 2.50812 30.6673 2.50729C22.018 2.50395 13.3687 2.50395 4.71938 2.50729C3.14101 2.50729 2.45214 3.1962 2.4513 4.76189C2.44796 11.5218 2.44796 18.2812 2.4513 25.04C2.4513 26.6032 3.14435 27.282 4.7244 27.2946C5.41577 27.2987 6.11049 27.247 6.79685 27.3054C8.10603 27.4173 9.712 26.7209 10.6558 27.6453C11.5997 28.5697 10.8949 30.1905 11.0254 31.4965C11.063 31.8405 11.0337 32.1921 11.0337 32.7348Z" fill="white"/>
<path d="M37.6977 35.9203C37.6977 37.0501 37.6977 38.1624 37.6977 39.2746C37.6977 39.7882 37.6977 40.2934 37.1125 40.5272C36.5273 40.761 36.1703 40.4253 35.8049 40.0579C34.5785 38.8254 33.3304 37.6146 32.1265 36.362C31.7612 35.9829 31.3875 35.8518 30.8725 35.861C28.4654 35.8844 26.0583 35.8863 23.6511 35.8668C21.4056 35.8518 19.7219 34.3638 19.6283 32.348C19.5932 31.5965 19.8515 31.2107 20.4367 31.1497C21.062 31.0846 21.3981 31.4094 21.5084 32.186C21.6756 33.3425 22.3277 33.9162 23.5558 33.9212C26.2009 33.9329 28.8469 33.9379 31.492 33.9162C32.1115 33.912 32.583 34.1007 33.006 34.5517C33.874 35.496 34.8095 36.3762 35.8049 37.1854C35.8049 36.5107 35.7991 35.8359 35.8049 35.1612C35.8141 34.2861 36.1394 33.9529 37.0088 33.9279C37.604 33.9112 38.2018 33.9412 38.7962 33.9103C39.8086 33.8577 40.5242 33.1947 40.5309 32.191C40.5576 28.597 40.5576 25.0027 40.5309 21.4081C40.5217 20.3643 39.7785 19.7264 38.6541 19.6546C38.3197 19.632 37.9852 19.6587 37.6508 19.6328C37.1242 19.5928 36.8148 19.2988 36.7889 18.7669C36.758 18.2008 37.0548 17.84 37.6024 17.7757C40.6471 17.4158 42.5072 19.242 42.4997 21.8632C42.4905 25.1007 42.4997 28.3381 42.4997 31.5756C42.4997 34.2945 41.0041 35.8084 38.2737 35.8752C38.1098 35.876 37.9468 35.8986 37.6977 35.9203Z" fill="white"/>
<path d="M27.2368 16.7812C26.8621 16.7854 26.4903 16.7156 26.1427 16.5757C25.7952 16.4359 25.4787 16.2287 25.2116 15.9663C24.9445 15.7038 24.732 15.3912 24.5863 15.0464C24.4406 14.7016 24.3645 14.3314 24.3626 13.9572C24.3559 12.4065 25.6584 11.0896 27.2092 11.0763C28.76 11.0629 30.0742 12.3781 30.0834 13.9296C30.085 14.3038 30.0126 14.6747 29.8702 15.0209C29.7278 15.3671 29.5184 15.6817 29.2538 15.9467C28.9893 16.2118 28.6749 16.4219 28.3287 16.5651C27.9825 16.7084 27.6114 16.7818 27.2368 16.7812ZM27.2242 13.0236C27.099 13.0194 26.9743 13.0409 26.8577 13.0866C26.7411 13.1324 26.6351 13.2014 26.5462 13.2895C26.4572 13.3777 26.3873 13.483 26.3406 13.5991C26.2938 13.7152 26.2714 13.8396 26.2745 13.9647C26.2854 14.4782 26.7452 14.9199 27.2602 14.8832C27.8228 14.8448 28.1221 14.4974 28.1706 13.9647C28.2191 13.4319 27.7676 13.0261 27.2242 13.0261V13.0236Z" fill="white"/>
<path d="M8.13321 16.7837C7.7583 16.7851 7.38691 16.7115 7.04097 16.5671C6.69503 16.4228 6.38156 16.2107 6.11908 15.9433C5.8566 15.6759 5.65044 15.3587 5.51277 15.0103C5.3751 14.662 5.30872 14.2897 5.31755 13.9153C5.33176 12.3463 6.64345 11.0469 8.18588 11.0762C9.72831 11.1054 11.0534 12.4415 11.0283 13.9704C11.0134 14.7255 10.7011 15.4442 10.1591 15.9709C9.61718 16.4975 8.88928 16.7895 8.13321 16.7837ZM9.07957 13.9629C9.08876 13.4009 8.71173 13.0143 8.14993 13.0251C7.58814 13.036 7.27129 13.3508 7.21779 13.8978C7.16846 14.413 7.60235 14.8689 8.12151 14.889C8.24613 14.8949 8.37065 14.8753 8.48736 14.8312C8.60406 14.7871 8.71046 14.7196 8.79997 14.6328C8.88947 14.546 8.96018 14.4417 9.0077 14.3265C9.05522 14.2112 9.07854 14.0875 9.07622 13.9629H9.07957Z" fill="white"/>
<path d="M17.7113 16.7837C16.9546 16.7902 16.2259 16.4982 15.6835 15.9712C15.1411 15.4441 14.8288 14.7245 14.8145 13.9688C14.7911 12.4423 16.1086 11.1029 17.6611 11.0754C19.2136 11.0478 20.5144 12.3388 20.5269 13.9145C20.536 14.289 20.4698 14.6615 20.3322 15.0099C20.1946 15.3584 19.9885 15.6758 19.726 15.9433C19.4635 16.2108 19.1499 16.423 18.8039 16.5673C18.4578 16.7117 18.0863 16.7853 17.7113 16.7837ZM17.7021 13.026C17.1394 13.0202 16.7549 13.3968 16.7674 13.9588C16.78 14.5208 17.1018 14.8356 17.6452 14.8865C18.161 14.9341 18.615 14.4982 18.6334 13.9796C18.6395 13.8546 18.6198 13.7297 18.5755 13.6126C18.5312 13.4955 18.4633 13.3888 18.3759 13.299C18.2886 13.2093 18.1837 13.1384 18.0678 13.0909C17.9518 13.0434 17.8274 13.0201 17.7021 13.0227V13.026Z" fill="white"/>
<path d="M9.08667 29.1884C7.52501 29.1884 6.07705 29.1884 4.62408 29.1884C2.12693 29.1809 0.513446 27.5885 0.509266 25.08C0.497562 18.2968 0.497562 11.5135 0.509266 4.73016C0.509266 2.19081 2.12861 0.615093 4.68928 0.614258C13.3625 0.614258 22.0364 0.614258 30.7107 0.614258C33.258 0.614258 34.8314 2.1524 34.8356 4.68173C34.8456 11.4879 34.8456 18.2948 34.8356 25.1026C34.8356 27.6436 33.2681 29.1851 30.7275 29.1884C26.6528 29.1926 22.5781 29.1776 18.5034 29.2085C18.092 29.2239 17.6972 29.3748 17.3807 29.6377C15.2305 31.519 13.1112 33.4354 10.9911 35.3493C10.6023 35.7001 10.2236 36.0107 9.66434 35.7518C9.10506 35.493 9.08834 34.9895 9.08834 34.4776C9.08666 32.7424 9.08667 31.0105 9.08667 29.1884ZM11.0337 32.7348C12.9281 31.0339 14.677 29.4916 16.3892 27.91C16.8607 27.4741 17.3397 27.2812 17.9776 27.2846C22.2194 27.3054 26.4605 27.2996 30.7015 27.2921C32.2181 27.2921 32.9362 26.5631 32.937 25.0575C32.937 18.2976 32.937 11.5382 32.937 4.77943C32.937 3.22208 32.2314 2.50812 30.6673 2.50729C22.018 2.50395 13.3687 2.50395 4.71938 2.50729C3.14101 2.50729 2.45214 3.1962 2.4513 4.76189C2.44796 11.5218 2.44796 18.2812 2.4513 25.04C2.4513 26.6032 3.14435 27.282 4.7244 27.2946C5.41577 27.2987 6.11049 27.247 6.79685 27.3054C8.10603 27.4173 9.712 26.7209 10.6558 27.6453C11.5997 28.5697 10.8949 30.1905 11.0254 31.4965C11.063 31.8405 11.0337 32.1921 11.0337 32.7348Z" stroke="white"/>
<path d="M37.6977 35.9203C37.6977 37.0501 37.6977 38.1624 37.6977 39.2746C37.6977 39.7882 37.6977 40.2934 37.1125 40.5272C36.5273 40.761 36.1703 40.4253 35.8049 40.0579C34.5785 38.8254 33.3304 37.6146 32.1265 36.362C31.7612 35.9829 31.3875 35.8518 30.8725 35.861C28.4654 35.8844 26.0583 35.8863 23.6511 35.8668C21.4056 35.8518 19.7219 34.3638 19.6283 32.348C19.5932 31.5965 19.8515 31.2107 20.4367 31.1497C21.062 31.0846 21.3981 31.4094 21.5084 32.186C21.6756 33.3425 22.3277 33.9162 23.5558 33.9212C26.2009 33.9329 28.8469 33.9379 31.492 33.9162C32.1115 33.912 32.583 34.1007 33.006 34.5517C33.874 35.496 34.8095 36.3762 35.8049 37.1854C35.8049 36.5107 35.7991 35.8359 35.8049 35.1612C35.8141 34.2861 36.1394 33.9529 37.0088 33.9279C37.604 33.9112 38.2018 33.9412 38.7962 33.9103C39.8086 33.8577 40.5242 33.1947 40.5309 32.191C40.5576 28.597 40.5576 25.0027 40.5309 21.4081C40.5217 20.3643 39.7785 19.7264 38.6541 19.6546C38.3197 19.632 37.9852 19.6587 37.6508 19.6328C37.1242 19.5928 36.8148 19.2988 36.7889 18.7669C36.758 18.2008 37.0548 17.84 37.6024 17.7757C40.6471 17.4158 42.5072 19.242 42.4997 21.8632C42.4905 25.1007 42.4997 28.3381 42.4997 31.5756C42.4997 34.2945 41.0041 35.8084 38.2737 35.8752C38.1098 35.876 37.9468 35.8986 37.6977 35.9203Z" stroke="white"/>
<path d="M27.2368 16.7812C26.8621 16.7854 26.4903 16.7156 26.1427 16.5757C25.7952 16.4359 25.4787 16.2287 25.2116 15.9663C24.9445 15.7038 24.732 15.3912 24.5863 15.0464C24.4406 14.7016 24.3645 14.3314 24.3626 13.9572C24.3559 12.4065 25.6584 11.0896 27.2092 11.0763C28.76 11.0629 30.0742 12.3781 30.0834 13.9296C30.085 14.3038 30.0126 14.6747 29.8702 15.0209C29.7278 15.3671 29.5184 15.6817 29.2538 15.9467C28.9893 16.2118 28.6749 16.4219 28.3287 16.5651C27.9825 16.7084 27.6114 16.7818 27.2368 16.7812ZM27.2242 13.0236C27.099 13.0194 26.9743 13.0409 26.8577 13.0866C26.7411 13.1324 26.6351 13.2014 26.5462 13.2895C26.4572 13.3777 26.3873 13.483 26.3406 13.5991C26.2938 13.7152 26.2714 13.8396 26.2745 13.9647C26.2854 14.4782 26.7452 14.9199 27.2602 14.8832C27.8228 14.8448 28.1221 14.4974 28.1706 13.9647C28.2191 13.4319 27.7676 13.0261 27.2242 13.0261V13.0236Z" stroke="white"/>
<path d="M8.13321 16.7837C7.7583 16.7851 7.38691 16.7115 7.04097 16.5671C6.69503 16.4228 6.38156 16.2107 6.11908 15.9433C5.8566 15.6759 5.65044 15.3587 5.51277 15.0103C5.3751 14.662 5.30872 14.2897 5.31755 13.9153C5.33176 12.3463 6.64345 11.0469 8.18588 11.0762C9.72831 11.1054 11.0534 12.4415 11.0283 13.9704C11.0134 14.7255 10.7011 15.4442 10.1591 15.9709C9.61718 16.4975 8.88928 16.7895 8.13321 16.7837ZM9.07957 13.9629C9.08876 13.4009 8.71173 13.0143 8.14993 13.0251C7.58814 13.036 7.27129 13.3508 7.21779 13.8978C7.16846 14.413 7.60235 14.8689 8.12151 14.889C8.24613 14.8949 8.37065 14.8753 8.48736 14.8312C8.60406 14.7871 8.71046 14.7196 8.79997 14.6328C8.88947 14.546 8.96018 14.4417 9.0077 14.3265C9.05522 14.2112 9.07854 14.0875 9.07622 13.9629H9.07957Z" stroke="white"/>
<path d="M17.7113 16.7837C16.9546 16.7902 16.2259 16.4982 15.6835 15.9712C15.1411 15.4441 14.8288 14.7245 14.8145 13.9688C14.7911 12.4423 16.1086 11.1029 17.6611 11.0754C19.2136 11.0478 20.5144 12.3388 20.5269 13.9145C20.536 14.289 20.4698 14.6615 20.3322 15.0099C20.1946 15.3584 19.9885 15.6758 19.726 15.9433C19.4635 16.2108 19.1499 16.423 18.8039 16.5673C18.4578 16.7117 18.0863 16.7853 17.7113 16.7837ZM17.7021 13.026C17.1394 13.0202 16.7549 13.3968 16.7674 13.9588C16.78 14.5208 17.1018 14.8356 17.6452 14.8865C18.161 14.9341 18.615 14.4982 18.6334 13.9796C18.6395 13.8546 18.6198 13.7297 18.5755 13.6126C18.5312 13.4955 18.4633 13.3888 18.3759 13.299C18.2886 13.2093 18.1837 13.1384 18.0678 13.0909C17.9518 13.0434 17.8274 13.0201 17.7021 13.0227V13.026Z" stroke="white"/>
</svg>
