<svg width="42" height="41" viewBox="0 0 42 41" fill="none" xmlns="http://www.w3.org/2000/svg">
<mask id="path-1-inside-1_237_693" fill="white">
<path d="M20.6741 37.2964C29.1025 37.1379 36.2256 31.0344 37.3252 22.7679C37.5399 21.1566 37.3138 19.488 37.2831 17.8464C37.2831 17.5801 37.2082 17.316 37.207 17.0497C37.1991 16.1216 37.8488 15.3856 38.7348 15.298C39.5856 15.2148 40.4307 15.8474 40.5829 16.7385C41.1645 20.1453 41.0623 23.5274 39.8616 26.7927C37.0934 34.321 31.7025 38.9526 23.724 40.2414C13.451 41.901 3.79934 35.403 1.18792 25.6545C-1.75972 14.6429 5.042 3.55721 16.2351 0.988596C18.9726 0.360489 21.7351 0.371727 24.4987 0.829043C24.9278 0.891449 25.3173 1.11196 25.589 1.44639C25.8607 1.78082 25.9947 2.20447 25.964 2.63246C25.8765 3.56844 25.1484 4.21902 24.1556 4.16284C23.448 4.12352 22.7483 3.95273 22.0406 3.89093C13.8963 3.17967 6.17903 8.79331 4.32071 16.6295C2.2 25.5814 7.75224 34.2704 16.2737 36.5357C18.1343 37.0615 19.2679 37.2829 20.6741 37.2964Z"/>
<path d="M21.2966 32.2951C14.1507 32.2457 8.73253 26.1725 9.60717 19.1476C10.3739 13.0103 15.7001 8.58549 21.9191 8.92257C22.3538 8.94354 22.7631 9.13133 23.06 9.44605C23.3569 9.76077 23.5181 10.1776 23.5093 10.608C23.5122 10.8274 23.4702 11.045 23.3861 11.248C23.302 11.451 23.1774 11.6351 23.0197 11.7894C22.8621 11.9436 22.6746 12.0649 22.4685 12.1459C22.2624 12.2269 22.042 12.266 21.8203 12.2609C20.5026 12.2395 19.2316 12.4058 18.0105 12.9036C14.5846 14.3014 12.4583 17.8914 12.9115 21.5117C13.384 25.286 16.1011 28.1478 19.7984 28.767C25.1689 29.6557 29.7465 25.8051 29.7124 20.4195C29.7045 19.2352 30.3247 18.5296 31.3606 18.5408C32.3295 18.5521 32.9372 19.2745 32.9418 20.4229C32.9702 26.3725 29.4466 30.7502 23.5605 32.0367C22.821 32.1985 22.0509 32.2131 21.2966 32.2951Z"/>
<path d="M39.5402 5.58317H36.4585C36.4585 4.41459 36.4664 3.37187 36.4585 2.32914C36.4517 1.62575 36.2131 1.06618 35.4953 0.762804C34.7444 0.444817 34.1061 0.581902 33.5449 1.13023C32.4636 2.18757 31.3538 3.2213 30.3406 4.33931C29.9998 4.71573 29.7885 5.309 29.7442 5.8225C29.6695 6.86376 29.6645 7.90877 29.7295 8.95068C29.7613 9.63047 29.5602 10.1125 29.0559 10.6024C26.0969 13.4755 23.1765 16.388 20.2493 19.2914C19.6178 19.9173 19.4656 20.6915 19.8131 21.3375C20.1732 22.0061 20.9127 22.3926 21.6681 22.1679C22.0668 22.051 22.4473 21.7656 22.7483 21.4701C25.7118 18.5656 28.6458 15.634 31.6185 12.7407C31.9347 12.4665 32.3345 12.3048 32.7544 12.2811C33.9039 12.2204 35.0659 12.3249 36.2109 12.2305C36.7817 12.1791 37.3236 11.9586 37.7659 11.5979C38.8291 10.6676 39.7867 9.61924 40.8033 8.63494C41.4189 8.03829 41.704 7.40119 41.3383 6.55061C40.9873 5.73485 40.3205 5.58317 39.5402 5.58317Z"/>
</mask>
<path d="M20.6741 37.2964L20.655 39.2963L20.6833 39.2965L20.7117 39.296L20.6741 37.2964ZM37.3252 22.7679L35.3427 22.5037L35.3426 22.5042L37.3252 22.7679ZM37.2831 17.8464H35.2831V17.8651L35.2835 17.8837L37.2831 17.8464ZM37.207 17.0497L39.207 17.0412L39.207 17.0326L37.207 17.0497ZM38.7348 15.298L38.5403 13.3075L38.5379 13.3077L38.7348 15.298ZM40.5829 16.7385L42.5544 16.4019L42.5544 16.4017L40.5829 16.7385ZM39.8616 26.7927L41.7387 27.4829V27.4829L39.8616 26.7927ZM23.724 40.2414L23.4051 38.267L23.405 38.267L23.724 40.2414ZM1.18792 25.6545L-0.744057 26.1716L-0.743966 26.172L1.18792 25.6545ZM16.2351 0.988596L15.7878 -0.96075L15.7877 -0.960734L16.2351 0.988596ZM24.4987 0.829043L24.1722 2.80221L24.1915 2.80541L24.2109 2.80822L24.4987 0.829043ZM25.964 2.63246L27.9553 2.81854L27.9573 2.79703L27.9589 2.77548L25.964 2.63246ZM24.1556 4.16284L24.2686 2.16604L24.2666 2.16592L24.1556 4.16284ZM22.0406 3.89093L21.8666 5.88334L21.8666 5.88334L22.0406 3.89093ZM4.32071 16.6295L2.37468 16.168L2.37457 16.1684L4.32071 16.6295ZM16.2737 36.5357L16.8176 34.611L16.8026 34.6068L16.7875 34.6028L16.2737 36.5357ZM21.2966 32.2951L21.2828 34.2951L21.3982 34.2959L21.5129 34.2834L21.2966 32.2951ZM9.60717 19.1476L7.6226 18.8996L7.62249 18.9005L9.60717 19.1476ZM21.9191 8.92257L21.8109 10.9197L21.8227 10.9203L21.9191 8.92257ZM23.5093 10.608L21.5098 10.5672L21.5091 10.6004L21.5095 10.6336L23.5093 10.608ZM21.8203 12.2609L21.8667 10.2614L21.8527 10.2611L21.8203 12.2609ZM18.0105 12.9036L17.2555 11.0516L17.2549 11.0518L18.0105 12.9036ZM12.9115 21.5117L10.927 21.7601L10.927 21.7601L12.9115 21.5117ZM19.7984 28.767L19.4681 30.7395L19.4718 30.7401L19.7984 28.767ZM29.7124 20.4195L31.7124 20.4069L31.7124 20.4061L29.7124 20.4195ZM31.3606 18.5408L31.3838 16.541L31.3823 16.5409L31.3606 18.5408ZM32.9418 20.4229L30.9418 20.4308L30.9418 20.4324L32.9418 20.4229ZM23.5605 32.0367L23.1334 30.0828L23.133 30.0829L23.5605 32.0367ZM36.4585 5.58317H34.4585C34.4585 6.68774 35.3539 7.58317 36.4585 7.58317V5.58317ZM41.3383 6.55061L43.1756 5.76054L43.1754 5.76014L41.3383 6.55061ZM40.8033 8.63494L42.1945 10.0718L42.1951 10.0711L40.8033 8.63494ZM37.7659 11.5979L39.03 13.1478C39.0479 13.1332 39.0656 13.1183 39.083 13.103L37.7659 11.5979ZM36.2109 12.2305L36.3752 14.2238C36.3802 14.2234 36.3853 14.2229 36.3904 14.2225L36.2109 12.2305ZM32.7544 12.2811L32.6489 10.2839L32.6417 10.2843L32.7544 12.2811ZM31.6185 12.7407L30.3086 11.2293C30.2795 11.2545 30.2511 11.2806 30.2235 11.3075L31.6185 12.7407ZM22.7483 21.4701L21.3484 20.0418L21.3472 20.0429L22.7483 21.4701ZM21.6681 22.1679L21.1055 20.2486L21.0977 20.2509L21.6681 22.1679ZM19.8131 21.3375L18.0519 22.2851L18.0523 22.2859L19.8131 21.3375ZM20.2493 19.2914L21.6571 20.712L21.6578 20.7114L20.2493 19.2914ZM29.0559 10.6024L30.4491 12.0373L30.4494 12.037L29.0559 10.6024ZM29.7295 8.95068L31.7273 8.85721C31.7268 8.84688 31.7262 8.83656 31.7256 8.82624L29.7295 8.95068ZM29.7442 5.8225L27.7516 5.6506C27.7508 5.66013 27.7501 5.66967 27.7494 5.67922L29.7442 5.8225ZM30.3406 4.33931L28.8586 2.99626L28.8579 2.99705L30.3406 4.33931ZM33.5449 1.13023L32.1471 -0.300203L32.1467 -0.299785L33.5449 1.13023ZM35.4953 0.762804L34.7153 2.60445L34.7167 2.60505L35.4953 0.762804ZM36.4585 2.32914L38.4584 2.31389L38.4584 2.30976L36.4585 2.32914ZM20.7117 39.296C30.0789 39.1199 38.0714 32.326 39.3077 23.0316L35.3426 22.5042C34.3798 29.7428 28.126 35.1559 20.6365 35.2967L20.7117 39.296ZM39.3077 23.032C39.4378 22.055 39.4296 21.0997 39.3945 20.2372C39.3562 19.2944 39.298 18.621 39.2828 17.809L35.2835 17.8837C35.299 18.7133 35.3692 19.695 35.3978 20.3998C35.4298 21.1848 35.4272 21.8694 35.3427 22.5037L39.3077 23.032ZM39.2831 17.8464C39.2831 17.5484 39.2412 17.2764 39.2255 17.166C39.203 17.0078 39.2069 17.0131 39.207 17.0412L35.2071 17.0583C35.2083 17.3527 35.2503 17.6232 35.2655 17.7301C35.2876 17.8849 35.2831 17.8781 35.2831 17.8464H39.2831ZM39.207 17.0326C39.2071 17.0479 39.1987 17.1096 39.1406 17.1759C39.0817 17.2433 38.9997 17.2815 38.9317 17.2883L38.5379 13.3077C36.5763 13.5017 35.1907 15.1505 35.2071 17.0669L39.207 17.0326ZM38.9293 17.2885C38.8001 17.3011 38.7265 17.2575 38.7009 17.2378C38.6716 17.2152 38.6267 17.1645 38.6115 17.0752L42.5544 16.4017C42.2279 14.4909 40.4492 13.1209 38.5403 13.3075L38.9293 17.2885ZM38.6114 17.075C39.1491 20.2247 39.0372 23.2396 37.9845 26.1025L41.7387 27.4829C43.0873 23.8152 43.1799 20.0659 42.5544 16.4019L38.6114 17.075ZM37.9845 26.1025C35.4557 32.9798 30.6423 37.0979 23.4051 38.267L24.0429 42.2158C32.7627 40.8073 38.7312 35.6622 41.7387 27.4829L37.9845 26.1025ZM23.405 38.267C14.1643 39.7598 5.47083 33.9135 3.11981 25.137L-0.743966 26.172C2.12784 36.8926 12.7377 44.0421 24.043 42.2158L23.405 38.267ZM3.1199 25.1373C0.47184 15.2449 6.56814 5.25897 16.6824 2.93793L15.7877 -0.960734C3.51587 1.85544 -3.99127 14.0409 -0.744057 26.1716L3.1199 25.1373ZM16.6823 2.93794C19.122 2.37816 21.6171 2.3794 24.1722 2.80221L24.8252 -1.14412C21.8531 -1.63595 18.8231 -1.65719 15.7878 -0.96075L16.6823 2.93794ZM24.2109 2.80822C24.1469 2.79892 24.0837 2.76538 24.0368 2.70759L27.1412 0.185194C26.5508 -0.541466 25.7087 -1.01602 24.7865 -1.15014L24.2109 2.80822ZM24.0368 2.70759C23.9893 2.64913 23.9632 2.57118 23.9691 2.48945L27.9589 2.77548C28.0261 1.83776 27.7322 0.912512 27.1412 0.185194L24.0368 2.70759ZM23.9727 2.44638C23.9738 2.43467 23.993 2.34122 24.0954 2.25323C24.1417 2.21339 24.1897 2.1889 24.2289 2.17622C24.2678 2.16364 24.2843 2.16692 24.2686 2.16604L24.0426 6.15965C26.1084 6.27655 27.7676 4.82725 27.9553 2.81854L23.9727 2.44638ZM24.2666 2.16592C24.0245 2.15247 23.7626 2.11524 23.4089 2.0596C23.0846 2.0086 22.6532 1.93681 22.2146 1.89851L21.8666 5.88334C22.1357 5.90684 22.408 5.95135 22.7874 6.01102C23.1373 6.06606 23.5792 6.13389 24.0447 6.15976L24.2666 2.16592ZM22.2146 1.89851C13.0832 1.10105 4.46234 7.36474 2.37468 16.168L6.26674 17.091C7.89572 10.2219 14.7094 5.25829 21.8666 5.88334L22.2146 1.89851ZM2.37457 16.1684C-0.00452811 26.2111 6.22806 35.9347 15.7599 38.4685L16.7875 34.6028C9.27641 32.6061 4.40453 24.9517 6.26684 17.0905L2.37457 16.1684ZM15.7297 38.4603C17.6648 39.0072 18.9932 39.2803 20.655 39.2963L20.6933 35.2964C19.5426 35.2854 18.6037 35.1159 16.8176 34.611L15.7297 38.4603ZM21.3105 30.2952C15.3323 30.2538 10.8687 25.2028 11.5918 19.3947L7.62249 18.9005C6.59636 27.1422 12.9692 34.2376 21.2828 34.2951L21.3105 30.2952ZM11.5917 19.3955C12.2269 14.3114 16.6293 10.6388 21.8109 10.9196L22.0273 6.92551C14.7709 6.53219 8.5209 11.7092 7.6226 18.8996L11.5917 19.3955ZM21.8227 10.9203C21.7442 10.9165 21.6656 10.8825 21.6053 10.8186L24.5147 8.07351C23.8606 7.38021 22.9634 6.97063 22.0155 6.9249L21.8227 10.9203ZM21.6053 10.8186C21.5444 10.754 21.5078 10.6641 21.5098 10.5672L25.5089 10.6489C25.5285 9.69112 25.1695 8.76751 24.5147 8.07351L21.6053 10.8186ZM21.5095 10.6336C21.5088 10.5811 21.5189 10.5296 21.5385 10.4823L25.2337 12.0137C25.4216 11.5605 25.5155 11.0736 25.5092 10.5824L21.5095 10.6336ZM21.5385 10.4823C21.5581 10.435 21.5865 10.3936 21.6209 10.3599L24.4185 13.2188C24.7683 12.8766 25.0459 12.467 25.2337 12.0137L21.5385 10.4823ZM21.6209 10.3599C21.6553 10.3263 21.6949 10.3011 21.7368 10.2846L23.2002 14.0073C23.6543 13.8287 24.0689 13.561 24.4185 13.2188L21.6209 10.3599ZM21.7368 10.2846C21.7787 10.2681 21.8228 10.2604 21.8667 10.2614L21.7738 14.2603C22.2611 14.2717 22.7462 14.1858 23.2002 14.0073L21.7368 10.2846ZM21.8527 10.2611C20.3453 10.2367 18.7911 10.4256 17.2555 11.0516L18.7655 14.7556C19.672 14.3861 20.66 14.2423 21.7879 14.2606L21.8527 10.2611ZM17.2549 11.0518C13.0083 12.7845 10.3592 17.2246 10.927 21.7601L14.896 21.2633C14.5573 18.5581 16.1609 15.8183 18.7661 14.7554L17.2549 11.0518ZM10.927 21.7601C11.5071 26.3938 14.8815 29.9715 19.4681 30.7395L20.1287 26.7944C17.3206 26.3242 15.2609 24.1781 14.896 21.2632L10.927 21.7601ZM19.4718 30.7401C26.0376 31.8267 31.7545 27.0609 31.7124 20.4069L27.7125 20.4322C27.7385 24.5493 24.3002 27.4848 20.1249 26.7938L19.4718 30.7401ZM31.7124 20.4061C31.7107 20.1463 31.7788 20.2024 31.6482 20.3512C31.5828 20.4257 31.5001 20.4824 31.4202 20.515C31.3454 20.5455 31.3093 20.5404 31.3389 20.5407L31.3823 16.5409C30.38 16.5301 29.371 16.882 28.642 17.7125C27.9443 18.5074 27.7063 19.5084 27.7125 20.433L31.7124 20.4061ZM31.3374 20.5407C31.3312 20.5406 31.275 20.5381 31.1929 20.501C31.1084 20.4629 31.0346 20.4051 30.9817 20.3422C30.8783 20.2192 30.9409 20.1913 30.9418 20.4308L34.9418 20.415C34.9382 19.5061 34.6946 18.5429 34.044 17.7687C33.3628 16.9581 32.3978 16.5527 31.3838 16.541L31.3374 20.5407ZM30.9418 20.4324C30.9541 22.9999 30.2051 25.1209 28.9127 26.7224C27.6195 28.3249 25.6873 29.5246 23.1334 30.0828L23.9875 33.9906C27.3198 33.2622 30.0925 31.6298 32.0255 29.2345C33.9593 26.8381 34.9579 23.7955 34.9418 20.4133L30.9418 20.4324ZM23.133 30.0829C22.5247 30.216 22.0837 30.1978 21.0804 30.3069L21.5129 34.2834C22.018 34.2285 23.1173 34.181 23.988 33.9905L23.133 30.0829ZM36.4585 7.58317H39.5402V3.58317H36.4585V7.58317ZM39.5402 7.58317C39.6758 7.58317 39.7562 7.59019 39.801 7.59698C39.8435 7.60344 39.8252 7.60556 39.7734 7.58207C39.7144 7.55526 39.6419 7.50866 39.5778 7.442C39.5156 7.37741 39.4967 7.33075 39.5011 7.34107L43.1754 5.76014C42.8139 4.91975 42.2125 4.2965 41.4271 3.93989C40.7265 3.6218 40.0205 3.58317 39.5402 3.58317V7.58317ZM39.5009 7.34067C39.519 7.38257 39.5066 7.3692 39.5019 7.31064C39.4997 7.28213 39.4997 7.24838 39.5037 7.21142C39.5077 7.17451 39.515 7.14046 39.5239 7.11093C39.5418 7.05129 39.5606 7.02864 39.5485 7.0462C39.5347 7.06641 39.4958 7.11692 39.4114 7.19873L42.1951 10.0711C42.6295 9.65023 43.1144 9.05937 43.3537 8.26507C43.6104 7.41349 43.5177 6.55611 43.1756 5.76054L39.5009 7.34067ZM39.4121 7.19806C38.2649 8.30882 37.4747 9.19516 36.4488 10.0928L39.083 13.103C40.1835 12.14 41.3085 10.9297 42.1945 10.0718L39.4121 7.19806ZM36.5019 10.048C36.3703 10.1553 36.2065 10.2228 36.0314 10.2386L36.3904 14.2225C37.3569 14.1354 38.277 13.762 39.03 13.1478L36.5019 10.048ZM36.0466 10.2373C35.5783 10.2759 35.0868 10.2754 34.5077 10.2686C33.9565 10.2622 33.3031 10.2494 32.6489 10.2839L32.8598 14.2783C33.3551 14.2522 33.8575 14.2613 34.461 14.2683C35.0365 14.2751 35.6985 14.2796 36.3752 14.2238L36.0466 10.2373ZM32.6417 10.2843C31.7823 10.3328 30.9609 10.6639 30.3086 11.2293L32.9284 14.252C32.9086 14.2692 32.8868 14.2768 32.867 14.2779L32.6417 10.2843ZM30.2235 11.3075C27.2561 14.1957 24.285 17.1635 21.3484 20.0418L24.1482 22.8985C27.1386 19.9676 30.0355 17.0723 33.0134 14.1739L30.2235 11.3075ZM21.3472 20.0429C21.2639 20.1247 21.1879 20.1866 21.1281 20.2268C21.0645 20.2696 21.0562 20.2631 21.1055 20.2486L22.2306 24.0872C23.0878 23.8359 23.7496 23.2898 24.1494 22.8973L21.3472 20.0429ZM21.0977 20.2509C21.2128 20.2167 21.3436 20.231 21.4417 20.277C21.5267 20.3169 21.5618 20.3665 21.574 20.3892L18.0523 22.2859C18.7868 23.6497 20.4311 24.6225 22.2384 24.0849L21.0977 20.2509ZM21.5744 20.39C21.5966 20.4311 21.6166 20.4861 21.6258 20.5505C21.6349 20.6146 21.631 20.6716 21.6219 20.7154C21.6034 20.8043 21.5752 20.7932 21.6571 20.712L18.8415 17.8708C17.7216 18.9807 17.1972 20.6965 18.0519 22.2851L21.5744 20.39ZM21.6578 20.7114C24.5904 17.8025 27.5 14.9008 30.4491 12.0373L27.6627 9.16752C24.6938 12.0502 21.7626 14.9734 18.8409 17.8715L21.6578 20.7114ZM30.4494 12.037C30.843 11.6547 31.2048 11.1907 31.4443 10.6063C31.6862 10.0162 31.7538 9.42453 31.7273 8.85721L27.7317 9.04415C27.7331 9.07457 27.7328 9.09608 27.7322 9.10997C27.7316 9.12372 27.7307 9.12999 27.7307 9.1301C27.7307 9.1302 27.7308 9.12899 27.7313 9.12662C27.7318 9.12424 27.7326 9.12096 27.7337 9.11692C27.736 9.10849 27.7392 9.09894 27.7432 9.0892C27.7519 9.06778 27.7586 9.06005 27.7521 9.06905C27.7442 9.08011 27.7191 9.11265 27.6624 9.16781L30.4494 12.037ZM31.7256 8.82624C31.6662 7.8735 31.6707 6.91793 31.7391 5.96578L27.7494 5.67922C27.6682 6.80959 27.6628 7.94405 27.7334 9.07512L31.7256 8.82624ZM31.7368 5.9944C31.7422 5.93221 31.7614 5.84149 31.7952 5.75447C31.8109 5.71411 31.8254 5.68589 31.8347 5.66999C31.8445 5.65334 31.8429 5.65986 31.8233 5.68157L28.8579 2.99705C28.1529 3.7758 27.8233 4.8204 27.7516 5.6506L31.7368 5.9944ZM31.8225 5.68236C32.7819 4.62374 33.815 3.6633 34.9432 2.56025L32.1467 -0.299785C31.1121 0.711833 29.9257 1.81886 28.8586 2.99626L31.8225 5.68236ZM34.9427 2.56067C34.9778 2.52637 34.9862 2.5259 34.9643 2.53823C34.9399 2.55205 34.894 2.57255 34.8315 2.58472C34.7689 2.59693 34.7174 2.5953 34.6876 2.59131C34.6607 2.58771 34.6683 2.58456 34.7153 2.60445L36.2752 -1.07884C35.6107 -1.36028 34.8562 -1.49535 34.0664 -1.34142C33.2795 -1.18806 32.6421 -0.78387 32.1471 -0.300203L34.9427 2.56067ZM34.7167 2.60505C34.7284 2.61001 34.6956 2.59767 34.6438 2.55317C34.5898 2.50672 34.5399 2.44638 34.5025 2.38019C34.4312 2.2542 34.4572 2.2025 34.4586 2.34852L38.4584 2.30976C38.453 1.75239 38.3563 1.06921 37.9846 0.411742C37.5928 -0.281232 36.9918 -0.776031 36.2738 -1.07944L34.7167 2.60505ZM34.4586 2.34439C34.4664 3.37815 34.4585 4.39336 34.4585 5.58317H38.4585C38.4585 4.43583 38.4665 3.36558 38.4584 2.31389L34.4586 2.34439Z" fill="white" mask="url(#path-1-inside-1_237_693)"/>
</svg>
