<svg width="44" height="44" viewBox="0 0 44 44" fill="none" xmlns="http://www.w3.org/2000/svg">
<path d="M2 22.7617V26.4916C2 29.253 4.23858 31.4916 7 31.4916H18.9576M2 22.7617V6.89038C2 4.12896 4.23858 1.89038 7 1.89038H37C39.7614 1.89038 42 4.12896 42 6.89038V22.7617M2 22.7617H42M42 22.7617V26.4916C42 29.253 39.7614 31.4916 37 31.4916H25.5411M18.9576 31.4916V36.9101M18.9576 31.4916H25.5411M18.9576 36.9101H25.5411M18.9576 36.9101H15.8818C15.5392 36.9101 15.1918 36.9361 14.883 37.0845C14.6888 37.1778 14.465 37.3153 14.2693 37.5121C14.0711 37.7115 13.9335 37.9399 13.8406 38.137C13.6963 38.4433 13.6708 38.7865 13.6708 39.1252V41.8904M25.5411 31.4916V36.9101M25.5411 36.9101H28.617C28.9595 36.9101 29.307 36.9361 29.6157 37.0845C29.8099 37.1778 30.0337 37.3153 30.2294 37.5121C30.4276 37.7116 30.5653 37.9399 30.6581 38.137C30.8024 38.4433 30.8279 38.7865 30.8279 39.1252V41.8904M13.6708 41.8904H9.4813M13.6708 41.8904H30.8279M34.9177 41.8904H30.8279" stroke="white" stroke-width="3" stroke-linecap="round" stroke-linejoin="round"/>
</svg>
