<svg width="23" height="43" viewBox="0 0 23 43" fill="none" xmlns="http://www.w3.org/2000/svg">
<path d="M11.2846 41.4971C10.8623 41.4971 10.44 41.5059 10.0185 41.4971C9.05532 41.473 8.69156 41.1268 8.65377 40.1635C8.62414 39.392 8.60932 38.6199 8.62191 37.8491C8.63228 37.1991 8.36335 36.8529 7.69434 36.7468C5.90514 36.4621 4.12705 36.1203 2.46527 35.3561C2.25561 35.2602 2.04446 35.1629 1.84368 35.0502C1.0228 34.5905 0.860545 34.2787 1.10281 33.3594C1.39916 32.2327 1.72613 31.1143 2.08372 30.0041C2.38378 29.0738 2.6905 28.9531 3.58325 29.3974C5.62287 30.4133 7.77213 31.0852 10.0555 31.1138C11.0627 31.1234 12.0617 30.934 12.9938 30.5568C15.1097 29.6784 15.4179 27.2703 13.6895 25.7735C12.4893 24.7341 10.9579 24.3228 9.55393 23.6655C7.94105 22.9101 6.27557 22.2097 4.79531 21.2428C-0.677505 17.668 0.572346 9.96352 5.63324 7.40025C6.43708 6.99402 7.28316 6.66831 8.12331 6.33454C8.69896 6.10837 9.00124 5.75557 8.99902 5.11732C8.99902 4.20092 9.04792 3.28746 9.0731 2.3674C9.08718 1.8426 9.36945 1.52201 9.88288 1.51103C10.9764 1.48688 12.0722 1.50005 13.1664 1.53079C13.7591 1.5469 14.0169 1.93775 14.0488 2.48232C14.0895 3.16888 14.1095 3.85618 14.134 4.54421C14.1725 5.60479 14.3563 5.73435 15.4031 5.95686C16.7397 6.23016 18.0599 6.57616 19.3579 6.99329C20.7115 7.43978 20.8581 7.8116 20.4766 9.15033C20.2136 10.0711 19.9321 10.9868 19.6402 11.8995C19.3016 12.9601 18.9889 13.1028 17.9754 12.638C15.8854 11.6807 13.6984 11.2305 11.4009 11.4721C10.7956 11.5299 10.208 11.7063 9.67247 11.991C8.15961 12.8364 7.9455 14.6941 9.32278 15.7393C10.3259 16.5005 11.5143 17.0392 12.6567 17.5999C14.1459 18.3318 15.7165 18.9035 17.176 19.6845C20.61 21.5209 22.4725 25.0277 21.8954 28.754C21.3286 32.4078 19.06 34.734 15.598 35.9819C15.3416 36.0749 15.0719 36.1327 14.8163 36.2279C14.2236 36.4474 13.8888 36.839 13.8991 37.4992C13.9125 38.3776 13.9147 39.2515 13.8858 40.1262C13.8525 41.1436 13.5087 41.4656 12.4907 41.4898C12.0899 41.4993 11.6884 41.4898 11.2876 41.4898L11.2846 41.4971Z" stroke="white" stroke-width="2"/>
</svg>
